<?xml version="1.0" encoding="utf-8"?>
<!-- Generator: Adobe Illustrator 23.0.1, SVG Export Plug-In . SVG Version: 6.00 Build 0)  -->
<svg version="1.1" xmlns="http://www.w3.org/2000/svg" xmlns:xlink="http://www.w3.org/1999/xlink" x="0px" y="0px"
	 viewBox="0 0 250 250" style="enable-background:new 0 0 250 250;" xml:space="preserve">
<style type="text/css">
	.st0{display:none;}
	.st1{display:inline;}
	.st2{fill:#FFFFFF;}
	.st3{fill:#CCCCCC;}
	.st4{fill:none;stroke:#CCCCCC;stroke-width:0.5;stroke-miterlimit:10;}
</style>
<g id="Layer_1" class="st0">
	<g class="st1">
		<g>
			<rect x="23.25" y="27.25" class="st2" width="199.5" height="199.5"/>
			<path class="st3" d="M222.5,27.5v199h-199v-199H222.5 M223,27H23v200h200V27L223,27z"/>
		</g>
		<g>
			<circle class="st2" cx="123" cy="127" r="99.75"/>
			<path class="st3" d="M123,27.5c54.86,0,99.5,44.64,99.5,99.5s-44.64,99.5-99.5,99.5S23.5,181.86,23.5,127S68.14,27.5,123,27.5
				 M123,27C67.77,27,23,71.77,23,127s44.77,100,100,100s100-44.77,100-100S178.23,27,123,27L123,27z"/>
		</g>
		<g>
			<line class="st4" x1="22.5" y1="27.5" x2="223.5" y2="227.5"/>
		</g>
		<line class="st4" x1="223.5" y1="27.5" x2="22.5" y2="227.5"/>
		<rect x="73.5" y="26.5" class="st4" width="100" height="201"/>
		<line class="st4" x1="123.5" y1="26.5" x2="123.5" y2="227.5"/>
		<rect x="22.5" y="77.5" class="st4" width="201" height="100"/>
		<line class="st4" x1="22.5" y1="127.5" x2="223.5" y2="127.5"/>
		<rect x="51.5" y="56.5" class="st4" width="142" height="142"/>
		<circle class="st4" cx="122.5" cy="127.5" r="71"/>
		<circle class="st4" cx="123.5" cy="127.5" r="50"/>
		<circle class="st4" cx="123.5" cy="127.5" r="25"/>
	</g>
</g>
<g id="Layer_2">
	<g>
		<g>
			<rect x="76.5" y="77.13" width="96.5" height="0.75"/>
		</g>
		<g>
			<rect x="76.5" y="87.13" width="96.5" height="0.75"/>
		</g>
		<g>
			<rect x="76.5" y="95.13" width="96.5" height="0.75"/>
		</g>
		<g>
			<rect x="76.5" y="105.13" width="96.5" height="0.75"/>
		</g>
		<g>
			<path d="M197.5,151.5H195V57H51v94.5h-2.5c-0.55,0-1,0.45-1,1s0.45,1,1,1h149c0.55,0,1-0.45,1-1S198.05,151.5,197.5,151.5z
				 M125,151v-21h47v21H125z M193,151h-19v-23h-51v23H53V59h140V151z"/>
		</g>
		<g>
			<g>
				<circle cx="73" cy="78" r="0.63"/>
			</g>
			<g>
				<path d="M73,77.75c0.14,0,0.25,0.11,0.25,0.25s-0.11,0.25-0.25,0.25s-0.25-0.11-0.25-0.25S72.86,77.75,73,77.75L73,77.75z
					 M73,77c-0.55,0-1,0.45-1,1s0.45,1,1,1s1-0.45,1-1S73.55,77,73,77L73,77z"/>
			</g>
		</g>
		<g>
			<g>
				<circle cx="73" cy="95" r="0.63"/>
			</g>
			<g>
				<path d="M73,94.75c0.14,0,0.25,0.11,0.25,0.25s-0.11,0.25-0.25,0.25s-0.25-0.11-0.25-0.25S72.86,94.75,73,94.75L73,94.75z
					 M73,94c-0.55,0-1,0.45-1,1s0.45,1,1,1s1-0.45,1-1S73.55,94,73,94L73,94z"/>
			</g>
		</g>
		<g>
			<g>
				<circle cx="73" cy="105" r="0.63"/>
			</g>
			<g>
				<path d="M73,104.75c0.14,0,0.25,0.11,0.25,0.25s-0.11,0.25-0.25,0.25s-0.25-0.11-0.25-0.25S72.86,104.75,73,104.75L73,104.75z
					 M73,104c-0.55,0-1,0.45-1,1s0.45,1,1,1s1-0.45,1-1S73.55,104,73,104L73,104z"/>
			</g>
		</g>
		<g>
			<g>
				<circle cx="73" cy="87" r="0.63"/>
			</g>
			<g>
				<path d="M73,86.75c0.14,0,0.25,0.11,0.25,0.25s-0.11,0.25-0.25,0.25s-0.25-0.11-0.25-0.25S72.86,86.75,73,86.75L73,86.75z
					 M73,86c-0.55,0-1,0.45-1,1s0.45,1,1,1s1-0.45,1-1S73.55,86,73,86L73,86z"/>
			</g>
		</g>
	</g>
</g>
</svg>
