<?xml version="1.0" encoding="utf-8"?>
<!-- Generator: Adobe Illustrator 23.0.1, SVG Export Plug-In . SVG Version: 6.00 Build 0)  -->
<svg version="1.1" xmlns="http://www.w3.org/2000/svg" xmlns:xlink="http://www.w3.org/1999/xlink" x="0px" y="0px"
	 viewBox="0 0 250 250" style="enable-background:new 0 0 250 250;" xml:space="preserve">
<style type="text/css">
	.st0{display:none;}
	.st1{display:inline;}
	.st2{fill:#FFFFFF;}
	.st3{fill:#CCCCCC;}
	.st4{fill:none;stroke:#CCCCCC;stroke-width:0.5;stroke-miterlimit:10;}
	.st5{fill:none;stroke:#000000;stroke-miterlimit:10;}
	.st6{stroke:#000000;stroke-miterlimit:10;}
</style>
<g id="Layer_1" class="st0">
	<g class="st1">
		<g>
			<rect x="23.25" y="27.25" class="st2" width="199.5" height="199.5"/>
			<path class="st3" d="M222.5,27.5v199h-199v-199H222.5 M223,27H23v200h200V27L223,27z"/>
		</g>
		<g>
			<circle class="st2" cx="123" cy="127" r="99.75"/>
			<path class="st3" d="M123,27.5c54.86,0,99.5,44.64,99.5,99.5s-44.64,99.5-99.5,99.5S23.5,181.86,23.5,127S68.14,27.5,123,27.5
				 M123,27C67.77,27,23,71.77,23,127s44.77,100,100,100s100-44.77,100-100S178.23,27,123,27L123,27z"/>
		</g>
		<g>
			<line class="st4" x1="22.5" y1="27.5" x2="223.5" y2="227.5"/>
		</g>
		<line class="st4" x1="223.5" y1="27.5" x2="22.5" y2="227.5"/>
		<rect x="73.5" y="26.5" class="st4" width="100" height="201"/>
		<line class="st4" x1="123.5" y1="26.5" x2="123.5" y2="227.5"/>
		<rect x="22.5" y="77.5" class="st4" width="201" height="100"/>
		<line class="st4" x1="22.5" y1="127.5" x2="223.5" y2="127.5"/>
		<rect x="51.5" y="56.5" class="st4" width="142" height="142"/>
		<circle class="st4" cx="122.5" cy="127.5" r="71"/>
		<circle class="st4" cx="123.5" cy="127.5" r="50"/>
		<circle class="st4" cx="123.5" cy="127.5" r="25"/>
	</g>
</g>
<g id="Layer_2">
	<g>
		<path d="M122,63c35.84,0,65,29.16,65,65s-29.16,65-65,65s-65-29.16-65-65S86.16,63,122,63 M122,57c-39.21,0-71,31.79-71,71
			s31.79,71,71,71s71-31.79,71-71S161.21,57,122,57L122,57z"/>
	</g>
	<line class="st5" x1="61.84" y1="156.14" x2="61.5" y2="156.5"/>
	<polygon class="st6" points="172.64,105.64 119.89,158.39 105.75,172.53 91.79,158.21 77.83,143.89 75.68,141.68 80.64,136.49 
		80.65,136.48 89.82,127.54 91.97,129.75 105.93,144.07 158.5,91.5 	"/>
	<polygon class="st5" points="80.64,136.49 75.68,141.68 75.5,141.5 	"/>
	<line class="st5" x1="75.68" y1="141.68" x2="75.5" y2="141.5"/>
</g>
</svg>
