<?xml version="1.0" encoding="utf-8"?>
<!-- Generator: Adobe Illustrator 23.0.1, SVG Export Plug-In . SVG Version: 6.00 Build 0)  -->
<svg version="1.1" xmlns="http://www.w3.org/2000/svg" xmlns:xlink="http://www.w3.org/1999/xlink" x="0px" y="0px"
	 viewBox="0 0 250 250" style="enable-background:new 0 0 250 250;" xml:space="preserve">
<style type="text/css">
	.st0{display:none;}
	.st1{display:inline;}
	.st2{fill:#FFFFFF;}
	.st3{fill:#CCCCCC;}
	.st4{fill:none;stroke:#CCCCCC;stroke-width:0.5;stroke-miterlimit:10;}
	.st5{fill:#333333;}
</style>
<g id="Layer_1" class="st0">
	<g class="st1">
		<g>
			<rect x="23.25" y="27.25" class="st2" width="199.5" height="199.5"/>
			<path class="st3" d="M222.5,27.5v199h-199v-199H222.5 M223,27H23v200h200V27L223,27z"/>
		</g>
		<g>
			<circle class="st2" cx="123" cy="127" r="99.75"/>
			<path class="st3" d="M123,27.5c54.86,0,99.5,44.64,99.5,99.5s-44.64,99.5-99.5,99.5S23.5,181.86,23.5,127S68.14,27.5,123,27.5
				 M123,27C67.77,27,23,71.77,23,127s44.77,100,100,100s100-44.77,100-100S178.23,27,123,27L123,27z"/>
		</g>
		<g>
			<line class="st4" x1="22.5" y1="27.5" x2="223.5" y2="227.5"/>
		</g>
		<line class="st4" x1="223.5" y1="27.5" x2="22.5" y2="227.5"/>
		<rect x="73.5" y="26.5" class="st4" width="100" height="201"/>
		<line class="st4" x1="123.5" y1="26.5" x2="123.5" y2="227.5"/>
		<rect x="22.5" y="77.5" class="st4" width="201" height="100"/>
		<line class="st4" x1="22.5" y1="127.5" x2="223.5" y2="127.5"/>
		<rect x="51.5" y="56.5" class="st4" width="142" height="142"/>
		<circle class="st4" cx="122.5" cy="127.5" r="71"/>
		<circle class="st4" cx="123.5" cy="127.5" r="50"/>
		<circle class="st4" cx="123.5" cy="127.5" r="25"/>
	</g>
</g>
<g id="Layer_2">
	<g>
		<path class="st5" d="M92,93c0,4.48,1.02,8.72,2.84,12.51C90.3,110.13,83.99,113,77,113c-13.81,0-25-11.19-25-25s11.19-25,25-25
			c9.02,0,16.93,4.78,21.33,11.95C94.37,79.91,92,86.18,92,93z"/>
		<path class="st5" d="M102.42,119.3C90.6,122.96,82,134,82,147v31.95c-1,0.03-2,0.05-3,0.05c-13.07,0-25.56-2.51-37-7.07V142
			c0-13.75,11.25-25,25-25h25C95.71,117,99.24,117.83,102.42,119.3z"/>
		<path class="st5" d="M190,81c0,13.81-11.19,25-25,25c-6.05,0-11.6-2.15-15.92-5.73c0.6-2.32,0.92-4.76,0.92-7.27
			c0-8-3.26-15.25-8.51-20.51C144.97,62.87,154.18,56,165,56C178.81,56,190,67.19,190,81z"/>
		<path class="st5" d="M205,135v29.52c-11.71,4.82-24.55,7.48-38,7.48c-0.67,0-1.33-0.01-2-0.02V147c0-15.76-12.63-28.61-28.3-28.98
			c4.57-4.92,11.09-8.02,18.3-8.02h25C193.75,110,205,121.25,205,135z"/>
		<circle class="st5" cx="121" cy="93" r="25"/>
		<path class="st5" d="M161,147v29.52c-11.71,4.82-24.55,7.48-38,7.48c-13.07,0-25.56-2.51-37-7.07V147c0-13.75,11.25-25,25-25h25
			C149.75,122,161,133.25,161,147z"/>
	</g>
</g>
</svg>
