<?xml version="1.0" encoding="utf-8"?>
<!-- Generator: Adobe Illustrator 23.0.1, SVG Export Plug-In . SVG Version: 6.00 Build 0)  -->
<svg version="1.1" xmlns="http://www.w3.org/2000/svg" xmlns:xlink="http://www.w3.org/1999/xlink" x="0px" y="0px"
	 viewBox="0 0 400 400" style="enable-background:new 0 0 400 400;" xml:space="preserve">
<style type="text/css">
	.st0{display:none;}
	.st1{display:inline;}
	.st2{fill:#FFFFFF;}
	.st3{fill:#CCCCCC;}
	.st4{fill:none;stroke:#CCCCCC;stroke-width:0.5;stroke-miterlimit:10;}
</style>
<g id="Layer_1" class="st0">
	<g class="st1">
		<g>
			<rect x="93.25" y="100.25" class="st2" width="199.5" height="199.5"/>
			<path class="st3" d="M292.5,100.5v199h-199v-199H292.5 M293,100H93v200h200V100L293,100z"/>
		</g>
		<g>
			<circle class="st2" cx="193" cy="200" r="99.75"/>
			<path class="st3" d="M193,100.5c54.86,0,99.5,44.64,99.5,99.5s-44.64,99.5-99.5,99.5S93.5,254.86,93.5,200
				S138.14,100.5,193,100.5 M193,100c-55.23,0-100,44.77-100,100s44.77,100,100,100s100-44.77,100-100S248.23,100,193,100L193,100z"
				/>
		</g>
		<line class="st4" x1="92.5" y1="99.5" x2="292.5" y2="299.5"/>
		<rect x="92.5" y="149.5" class="st4" width="200" height="100"/>
		<line class="st4" x1="92.5" y1="199.5" x2="292.5" y2="199.5"/>
		<rect x="142.5" y="99.5" class="st4" width="100" height="200"/>
		<line class="st4" x1="192.5" y1="299.5" x2="192.5" y2="99.5"/>
		<line class="st4" x1="292.5" y1="99.5" x2="92.5" y2="299.5"/>
		<rect x="122.5" y="129.5" class="st4" width="141" height="141"/>
		<circle class="st4" cx="192.5" cy="199.5" r="70"/>
		<circle class="st4" cx="192.5" cy="199.5" r="50"/>
		<circle class="st4" cx="192.5" cy="199.5" r="25"/>
	</g>
</g>
<g id="Layer_2">
	<g>
		<polygon points="206.65,199.5 223.97,216.82 209.82,230.97 192.5,213.65 175.18,230.97 161.03,216.82 178.35,199.5 161.03,182.18 
			175.18,168.03 192.5,185.35 209.82,168.03 223.97,182.18 		"/>
	</g>
</g>
</svg>
