<?xml version="1.0" encoding="utf-8"?>
<!-- Generator: Adobe Illustrator 23.0.1, SVG Export Plug-In . SVG Version: 6.00 Build 0)  -->
<svg version="1.1" xmlns="http://www.w3.org/2000/svg" xmlns:xlink="http://www.w3.org/1999/xlink" x="0px" y="0px"
	 viewBox="0 0 250 250" style="enable-background:new 0 0 250 250;" xml:space="preserve">
<style type="text/css">
	.st0{display:none;}
	.st1{display:inline;}
	.st2{fill:#FFFFFF;}
	.st3{fill:#CCCCCC;}
	.st4{fill:none;stroke:#CCCCCC;stroke-width:0.5;stroke-miterlimit:10;}
	.st5{fill:none;}
	.st6{fill:#333333;}
</style>
<g id="Layer_1" class="st0">
	<g class="st1">
		<g>
			<rect x="23.25" y="27.25" class="st2" width="199.5" height="199.5"/>
			<path class="st3" d="M222.5,27.5v199h-199v-199H222.5 M223,27H23v200h200V27L223,27z"/>
		</g>
		<g>
			<circle class="st2" cx="123" cy="127" r="99.75"/>
			<path class="st3" d="M123,27.5c54.86,0,99.5,44.64,99.5,99.5s-44.64,99.5-99.5,99.5S23.5,181.86,23.5,127S68.14,27.5,123,27.5
				 M123,27C67.77,27,23,71.77,23,127s44.77,100,100,100s100-44.77,100-100S178.23,27,123,27L123,27z"/>
		</g>
		<g>
			<line class="st4" x1="22.5" y1="27.5" x2="223.5" y2="227.5"/>
		</g>
		<line class="st4" x1="223.5" y1="27.5" x2="22.5" y2="227.5"/>
		<rect x="73.5" y="26.5" class="st4" width="100" height="201"/>
		<line class="st4" x1="123.5" y1="26.5" x2="123.5" y2="227.5"/>
		<rect x="22.5" y="77.5" class="st4" width="201" height="100"/>
		<line class="st4" x1="22.5" y1="127.5" x2="223.5" y2="127.5"/>
		<rect x="51.5" y="56.5" class="st4" width="142" height="142"/>
		<circle class="st4" cx="122.5" cy="127.5" r="71"/>
		<circle class="st4" cx="123.5" cy="127.5" r="50"/>
		<circle class="st4" cx="123.5" cy="127.5" r="25"/>
	</g>
</g>
<g id="Layer_2">
	<g>
		<polygon class="st5" points="149.03,139.54 154.43,171.54 126,156.49 126,83.13 140.24,112.19 172.34,116.96 		"/>
		<path class="st6" d="M174.49,116.26l-33.58-4.98l-14.94-30.49l-0.35,0.71L125,82.74l-14.15,28.45l-33.61,4.79l24.24,23.77
			l-5.84,33.45l30.1-15.72l30.01,15.89l-5.64-33.48L174.49,116.26z M154.43,171.54L126,156.49V83.13l14.24,29.06l32.1,4.77
			l-23.31,22.58L154.43,171.54z"/>
	</g>
</g>
</svg>
